<svg xmlns="http://www.w3.org/2000/svg" width="120" height="120" viewBox="0 0 32 32"><circle fill="#ffffff" stroke="#725794" r="15.25" cx="15.95" cy="15.95" stroke-width="1.25"></circle> <g fill="#dd6418" transform="matrix(.03751 0 0 .03751 5.5 4.96)"><circle cx="515.92" cy="412.86" r="26"></circle> <circle cx="499.71" cy="484.31" r="21"></circle></g> <path fill="#dd6418" d="M23.73 10.83c-.23.06-.94-.04-.94-.04.2.13.33.49.32.73-.7-.09-.98-.32-1.62-.66 0 .01.45.52.87.84.8.6 1.5 1.32 1.95 2 .22.33.27.37.29.24.06-.4-.1-1.81-.75-2.74-.1-.13-.11-.27-.12-.37z"></path> <path d="M6.84 5.38c-.22-.01-.33.18-.17.33 7.23 3.42 6.16 6.67 7.1 10.4.24 1 1.92 8.84 10.75 9.6.35.03.45-.36.1-.45-7.21-1.92-8.95-14.53-3.91-14.99.7-.06.91.23 1.44.4a4.5 4.5 0 001.62.19c.47-.87-.37-1.86-1.08-2.6.77-.49 3.24-1.03 3.53-1.16.18-.08.09-.36-.07-.4-1.13.08-3.81.3-5.02.75-2.11-1.27-4.87-.28-6.27 1.9-1.43-2.07-3.45-2.7-8.02-3.97zM18.7 7.34c1.08 0 1.05.45-.35.92-1.68.55-3.08 1.91-3.48 3.2-.16-.23.63-3.72 3.83-4.12z"></path> <circle fill="#725794" cx="9.25" cy="22.65" r="8.25"></circle> <g><svg x="4.5" y="18.1" fill="#ffffff" width="9.5" height="9.5" xmlns="http://www.w3.org/2000/svg" viewBox="0 0 512 512"><!--! Font Awesome Free 6.2.0 by @fontawesome - https://fontawesome.com License - https://fontawesome.com/license/free (Icons: CC BY 4.0, Fonts: SIL OFL 1.1, Code: MIT License) Copyright 2022 Fonticons, Inc. --><path d="M216.29 158.39H137C97 147.9 6.51 150.63 6.51 233.18c0 30.09 15 51.23 35 61-25.1 23-37 33.85-37 49.21 0 11 4.47 21.14 17.89 26.81C8.13 383.61 0 393.35 0 411.65c0 32.11 28.05 50.82 101.63 50.82 70.75 0 111.79-26.42 111.79-73.18 0-58.66-45.16-56.5-151.63-63l13.43-21.55c27.27 7.58 118.7 10 118.7-67.89 0-18.7-7.73-31.71-15-41.07l37.41-2.84zm-63.42 241.9c0 32.06-104.89 32.1-104.89 2.43 0-8.14 5.27-15 10.57-21.54 77.71 5.3 94.32 3.37 94.32 19.11zm-50.81-134.58c-52.8 0-50.46-71.16 1.2-71.16 49.54 0 50.82 71.16-1.2 71.16zm133.3 100.51v-32.1c26.75-3.66 27.24-2 27.24-11V203.61c0-8.5-2.05-7.38-27.24-16.26l4.47-32.92H324v168.71c0 6.51.4 7.32 6.51 8.14l20.73 2.84v32.1zm52.45-244.31c-23.17 0-36.59-13.43-36.59-36.61s13.42-35.77 36.59-35.77c23.58 0 37 12.62 37 35.77s-13.42 36.61-37 36.61zM512 350.46c-17.49 8.53-43.1 16.26-66.28 16.26-48.38 0-66.67-19.5-66.67-65.46V194.75c0-5.42 1.05-4.06-31.71-4.06V154.5c35.78-4.07 50-22 54.47-66.27h38.63c0 65.83-1.34 61.81 3.26 61.81H501v40.65h-60.56v97.15c0 6.92-4.92 51.41 60.57 26.84z"></path></svg></g></svg>