<?xml version="1.0" encoding="UTF-8" standalone="no"?>
<!-- Created with Inkscape (http://www.inkscape.org/) -->

<svg
   xmlns:dc="http://purl.org/dc/elements/1.1/"
   xmlns:cc="http://creativecommons.org/ns#"
   xmlns:rdf="http://www.w3.org/1999/02/22-rdf-syntax-ns#"
   xmlns:svg="http://www.w3.org/2000/svg"
   xmlns="http://www.w3.org/2000/svg"
   xmlns:xlink="http://www.w3.org/1999/xlink"
   xmlns:sodipodi="http://sodipodi.sourceforge.net/DTD/sodipodi-0.dtd"
   xmlns:inkscape="http://www.inkscape.org/namespaces/inkscape"
   width="40.749741mm"
   height="67.181931mm"
   viewBox="0 0 144.38884 238.04621"
   id="svg5340"
   version="1.1"
   inkscape:version="0.91 r13725"
   sodipodi:docname="sailboat-2.svg">
  <defs
     id="defs5342">
    <linearGradient
       y2="1543.583"
       y1="1586.2417"
       xlink:href="#linearGradient2140"
       x2="103.70811"
       x1="178.06049"
       id="linearGradient2146"
       gradientUnits="userSpaceOnUse"
       gradientTransform="scale(2.295316,0.43567)" />
    <linearGradient
       id="linearGradient2140">
      <stop
         style="stop-color:#b95600;stop-opacity:1.0000000;"
         offset="0.00000000"
         id="stop2142" />
      <stop
         style="stop-color:#caa07f;stop-opacity:1.0000000;"
         offset="1.0000000"
         id="stop2148" />
      <stop
         style="stop-color:#dcebff;stop-opacity:0.00000000;"
         offset="1.0000000"
         id="stop2144" />
    </linearGradient>
    <linearGradient
       y2="336.50485"
       y1="332.70062"
       xlink:href="#linearGradient7966"
       x2="555.33667"
       x1="391.37012"
       id="linearGradient2138"
       gradientUnits="userSpaceOnUse"
       gradientTransform="scale(0.650133,1.538147)" />
    <linearGradient
       id="linearGradient7966">
      <stop
         style="stop-color:#ffffff;stop-opacity:1"
         offset="0.00000000"
         id="stop7968" />
      <stop
         style="stop-color:#c5c5c5;stop-opacity:1"
         offset="1.0000000"
         id="stop7972" />
    </linearGradient>
    <linearGradient
       y2="355.96008"
       y1="341.59891"
       xlink:href="#linearGradient7966"
       x2="654.09027"
       x1="529.53662"
       id="linearGradient2128"
       gradientUnits="userSpaceOnUse"
       gradientTransform="matrix(0.65598,0,0,1.524436,1.1537499,1.7306321)" />
  </defs>
  <sodipodi:namedview
     id="base"
     pagecolor="#ffffff"
     bordercolor="#666666"
     borderopacity="1.0"
     inkscape:pageopacity="0.0"
     inkscape:pageshadow="2"
     inkscape:zoom="0.7"
     inkscape:cx="216.5163"
     inkscape:cy="-132.38598"
     inkscape:document-units="px"
     inkscape:current-layer="layer1"
     showgrid="false"
     fit-margin-top="3"
     fit-margin-left="3"
     fit-margin-bottom="3"
     fit-margin-right="3" />
  <metadata
     id="metadata5345">
    <rdf:RDF>
      <cc:Work
         rdf:about="">
        <dc:format>image/svg+xml</dc:format>
        <dc:type
           rdf:resource="http://purl.org/dc/dcmitype/StillImage" />
        <dc:title></dc:title>
      </cc:Work>
    </rdf:RDF>
  </metadata>
  <g
     inkscape:label="Ebene 1"
     inkscape:groupmode="layer"
     id="layer1"
     transform="translate(-279.23416,-113.3391)">
    <g
       id="layer1-4"
       transform="matrix(0.21781285,0,0,0.21781285,274.06118,117.60222)">
      <g
         transform="matrix(2.633463,0,0,2.633463,-496.1068,-822.2489)"
         id="g2174">
        <path
           style="fill:#000000;fill-opacity:0.28108108;fill-rule:evenodd;stroke:none;stroke-width:1px;stroke-linecap:butt;stroke-linejoin:miter;stroke-opacity:1"
           id="path2172"
           d="m 263.16653,679.77844 c 0,0 -21.92129,-0.91179 -3.36305,4.56735 18.55824,5.47914 118.14921,16.92351 127.772,16.92351 9.62279,0 22.75096,0.0302 37.93638,-1.56547 16.29499,-0.48608 -10.97292,-5.83616 -20.40426,-8.61008 L 263.16653,679.77844 Z"
           inkscape:connector-curvature="0" />
        <path
           style="fill:#000000;fill-opacity:0.19459456;fill-rule:evenodd;stroke:none;stroke-width:1px;stroke-linecap:butt;stroke-linejoin:miter;stroke-opacity:1"
           id="path2164"
           d="m 270.39411,680.62111 c 0,0 -27.0016,-2.1926 -10.43243,1.64445 16.56916,3.83704 112.91577,15.34818 121.50719,15.34818 8.59142,0 42.78042,2.18597 36.03002,-1.65108 -6.7504,-3.83705 -20.04043,-4.92008 -20.04043,-4.92008 L 270.39411,680.62111 Z"
           inkscape:connector-curvature="0" />
        <path
           style="fill:none;fill-opacity:0.75;fill-rule:evenodd;stroke:#8f0000;stroke-width:5;stroke-linecap:butt;stroke-linejoin:miter;stroke-miterlimit:4;stroke-opacity:1"
           id="path2168"
           d="m 354.08862,323.3562 -3.47146,340.6862"
           inkscape:connector-curvature="0" />
        <path
           style="fill:url(#linearGradient2146);fill-opacity:1;fill-rule:evenodd;stroke:none;stroke-width:1px;stroke-linecap:butt;stroke-linejoin:miter;stroke-opacity:1"
           id="path1358"
           d="m 255.29877,665.08692 175.24747,-3.24532 c 0,0 -3.24532,8.65419 -9.73597,16.22662 -6.49065,7.57242 -11.89952,9.73597 -17.30839,12.98129 -5.40888,3.24532 -8.6542,3.24532 -8.6542,3.24532 0,0 -40.02565,-3.24532 -68.15179,-5.40887 -28.12614,-2.16355 -55.1705,-6.49065 -55.1705,-6.49065 l -16.22662,-17.30839 z"
           inkscape:connector-curvature="0" />
        <path
           style="fill:url(#linearGradient2138);fill-opacity:1;fill-rule:evenodd;stroke:none;stroke-width:1px;stroke-linecap:butt;stroke-linejoin:miter;stroke-opacity:1"
           id="path1360"
           d="m 218.51844,625.06127 c 0,0 43.27098,-108.17745 67.07002,-156.8573 23.79904,-48.67985 68.15179,-139.54891 68.15179,-139.54891 l -1.08177,321.28702 -134.14004,-24.88081 z"
           inkscape:connector-curvature="0" />
        <path
           style="fill:none;fill-opacity:0.75;fill-rule:evenodd;stroke:#880000;stroke-width:2.70000005;stroke-linecap:butt;stroke-linejoin:miter;stroke-miterlimit:4;stroke-opacity:1"
           id="path2170"
           d="m 216.19716,624.67543 123.23673,24.3002"
           inkscape:connector-curvature="0" />
        <path
           style="fill:url(#linearGradient2128);fill-opacity:1;fill-rule:evenodd;stroke:none;stroke-width:1px;stroke-linecap:butt;stroke-linejoin:miter;stroke-opacity:1"
           id="path1362"
           d="M 325.68609,659.24513 354.894,429.90894 c 0,0 16.22662,24.88082 29.20791,55.1705 12.9813,30.28969 47.59808,89.78728 40.02566,112.50455 -7.57242,22.71726 -14.06307,51.92517 -27.04436,58.41582 -12.9813,6.49064 -19.47194,6.49064 -19.47194,6.49064 0,0 -41.10743,-1.08177 -51.92518,-3.24532 z"
           inkscape:connector-curvature="0" />
        <path
           style="fill:#000000;fill-opacity:0.11351348;fill-rule:evenodd;stroke:none;stroke-width:1px;stroke-linecap:butt;stroke-linejoin:miter;stroke-opacity:1"
           id="path2150"
           d="m 352.65848,343.79991 0,15.14484 c 0,0 -28.12614,121.15874 -32.45324,131.97649 -4.32709,10.81774 -11.89952,30.28968 -4.3271,12.98129 l 36.78034,-160.10262 z"
           inkscape:connector-curvature="0" />
        <path
           style="fill:#000000;fill-opacity:0.11351348;fill-rule:evenodd;stroke:none;stroke-width:1px;stroke-linecap:butt;stroke-linejoin:miter;stroke-opacity:1"
           id="path2152"
           d="m 351.5767,407.6246 c 0,0 -15.14484,89.78728 -17.30839,113.58632 -2.16355,23.79904 -6.49065,65.98824 -6.49065,65.98824 0,0 7.57243,-104.93212 10.81775,-123.32229 3.24532,-18.39016 12.98129,-56.25227 12.98129,-56.25227 z"
           inkscape:connector-curvature="0" />
        <path
           style="fill:#000000;fill-opacity:0.11351348;fill-rule:evenodd;stroke:none;stroke-width:1px;stroke-linecap:butt;stroke-linejoin:miter;stroke-opacity:1"
           id="path2154"
           d="m 311.55105,466.04042 32.45323,-95.19615 c 0,0 -18.39016,44.35275 -22.71726,57.33404 -4.3271,12.9813 -9.73597,37.86211 -9.73597,37.86211 z"
           inkscape:connector-curvature="0" />
        <path
           style="fill:#000000;fill-opacity:0.11351348;fill-rule:evenodd;stroke:none;stroke-width:1px;stroke-linecap:butt;stroke-linejoin:miter;stroke-opacity:1"
           id="path2156"
           d="m 367.80332,483.34881 c 0,0 9.73597,34.61678 9.73597,53.00695 0,18.39017 -1.08177,33.53501 -1.08177,33.53501 0,0 5.40887,-27.04436 3.24532,-44.35275 -2.16355,-17.30839 -11.89952,-42.18921 -11.89952,-42.18921 z"
           inkscape:connector-curvature="0" />
        <path
           style="fill:#000000;fill-opacity:0.11351348;fill-rule:evenodd;stroke:none;stroke-width:1px;stroke-linecap:butt;stroke-linejoin:miter;stroke-opacity:1"
           id="path2158"
           d="m 366.72155,656.43273 c 0,0 22.71726,0 30.28968,-8.6542 7.57242,-8.65419 16.22662,-28.12614 19.47194,-43.27098 3.24532,-15.14484 3.24532,-30.28968 -3.24532,-44.35275 -6.49065,-14.06307 -12.9813,-29.20791 -12.9813,-29.20791 0,0 16.22662,41.10743 12.9813,57.33404 -3.24533,22.71727 -8.6542,33.53501 -14.06307,42.18921 -2.16355,7.57242 -4.3271,14.06307 -15.14484,20.55371 -10.81775,6.49065 -17.30839,5.40888 -17.30839,5.40888 z"
           inkscape:connector-curvature="0" />
        <path
           style="fill:none;fill-opacity:0.75;fill-rule:evenodd;stroke:#9c0000;stroke-width:2.20000005;stroke-linecap:butt;stroke-linejoin:miter;stroke-miterlimit:4;stroke-opacity:1"
           id="path2160"
           d="m 261.46232,668.33225 c 0,0 141.71246,1.08177 153.61198,-1.08178"
           inkscape:connector-curvature="0" />
        <path
           style="fill:#000000;fill-opacity:0.1837838;fill-rule:evenodd;stroke:none;stroke-width:1px;stroke-linecap:butt;stroke-linejoin:miter;stroke-opacity:1"
           id="path2162"
           d="m 266.11652,673.74112 5.62279,7.79245 48.2948,6.47842 c 61.18443,3.47145 68.32292,4.77325 75.89535,3.69148 12.77961,-6.7229 -62.72459,-5.39665 -93.68656,-9.51596 -13.60469,-1.5157 -19.89976,-3.03752 -26.39041,-5.20107 -6.49065,-2.16355 -9.73597,-3.24532 -9.73597,-3.24532 z"
           inkscape:connector-curvature="0" />
      </g>
    </g>
  </g>
</svg>
