<?xml version="1.0"?>
<svg xmlns:rdf="http://www.w3.org/1999/02/22-rdf-syntax-ns#" xmlns="http://www.w3.org/2000/svg" xmlns:cc="http://creativecommons.org/ns#" xmlns:xlink="http://www.w3.org/1999/xlink" xmlns:dc="http://purl.org/dc/elements/1.1/" xmlns:svg="http://www.w3.org/2000/svg" id="svg3969" viewBox="0 0 64 64" version="1.1">
  <defs id="defs3971">
    <linearGradient id="linearGradient3790" y2="567.19" gradientUnits="userSpaceOnUse" y1="567.19" gradientTransform="translate(.70687 -380.83)" x2="513.76" x1="282.82">
      <stop id="stop3761-4" stop-color="#454545" offset="0"/>
      <stop id="stop3850" stop-color="#1c1c1c" offset=".38427"/>
      <stop id="stop3767-0" stop-color="#383838" offset=".76855"/>
      <stop id="stop3769-9" stop-color="#262626" offset=".9143"/>
      <stop id="stop3763-4" offset="1"/>
    </linearGradient>
    <linearGradient id="linearGradient3806" y2="344.51" gradientUnits="userSpaceOnUse" x2="633.36" gradientTransform="translate(-1.4142 -207.89)" y1="344.51" x1="153.79">
      <stop id="stop3802" stop-color="#28292b" offset="0"/>
      <stop id="stop3804" stop-color="#1a2334" offset="1"/>
    </linearGradient>
    <linearGradient id="linearGradient3721" y2="536.59" xlink:href="#linearGradient3681" gradientUnits="userSpaceOnUse" x2="208.44" gradientTransform="translate(-1.4142 -207.89)" y1="487.38" x1="204.35"/>
    <linearGradient id="linearGradient3681">
      <stop id="stop3683" stop-color="#6cbb73" offset="0"/>
      <stop id="stop3685" stop-color="#7ccf83" offset="1"/>
    </linearGradient>
    <linearGradient id="linearGradient3697" y2="459.15" gradientUnits="userSpaceOnUse" x2="187.46" gradientTransform="matrix(1.0903 0 0 1.0023 9.8668 -209.44)" y1="459.15" x1="172.82">
      <stop id="stop3693" stop-color="#fff" offset="0"/>
      <stop id="stop3695" stop-color="#919191" offset="1"/>
    </linearGradient>
    <radialGradient id="radialGradient3811" xlink:href="#linearGradient3681" gradientUnits="userSpaceOnUse" cy="408.9" cx="242.94" r="11.617"/>
    <linearGradient id="linearGradient3679" y2="451.68" gradientUnits="userSpaceOnUse" x2="80.714" gradientTransform="matrix(.80104 0 0 .69846 347.99 -204.63)" y1="451.68" x1="44.286">
      <stop id="stop3675" offset="0"/>
      <stop id="stop3677" stop-color="#797979" offset="1"/>
    </linearGradient>
    <linearGradient id="linearGradient3684" y2="630.59" xlink:href="#linearGradient3649" gradientUnits="userSpaceOnUse" y1="472.38" gradientTransform="translate(-2.5517 -207.39)" x2="289.44" x1="339.85"/>
    <linearGradient id="linearGradient3649">
      <stop id="stop3651" stop-color="#71c97c" offset="0"/>
      <stop id="stop3653" stop-color="#00b418" offset="1"/>
    </linearGradient>
    <linearGradient id="linearGradient3705" y2="554.66" xlink:href="#linearGradient3649" gradientUnits="userSpaceOnUse" x2="503.8" y1="534.11" x1="403.85"/>
    <linearGradient id="linearGradient3824" y2="147.27" gradientUnits="userSpaceOnUse" x2="386.5" gradientTransform="translate(2,-5)" y1="73.362" x1="386.5">
      <stop id="stop3693-7" stop-color="#fff" offset="0"/>
      <stop id="stop3695-6" stop-color="#919191" stop-opacity=".10145" offset="1"/>
    </linearGradient>
  </defs>
  <g id="layer1">
    <g id="g3146" transform="matrix(.13329 0 0 .13329 -20.287 5.0528)">
      <g id="g3934">
        <path id="rect3761-0-8" d="m284.43 104.85h217l12.142 113.48c-1.5458 19.364-2.2883 19.992-13.703 28.603-14.037 8.3372-31.044 12.744-46.525 15.888-38.838 7.8888-81.741 7.8357-133.52-9.544-16.874-5.3043-24.396-28.572-23.256-38.129l-12.13-110.3z" fill="url(#linearGradient3790)"/>
        <path id="rect2830" d="m152.87 119.47 234.29-51.429 244.29 47.143-235.71 90-242.86-85.714z" fill="url(#linearGradient3806)"/>
        <path id="rect3614" d="m241.53 227.52h12.627c31.789 93.94 100.45 85.935 183.93 73.862 46.587-9.057 49.68 46.294-2.1617 50.052-79.669 13.587-189.77-2.7384-194.4-123.91z" fill="url(#linearGradient3721)"/>
        <path id="path3605-7" d="m412.64 111.83c-8.4785 4.6357-26.236-4.15-29.1-0.45112-0.2999 0.38742-0.004 2.5808 0.0404 3.231 6.992 5.1097 20.486 5.2034 28.705 0.0634l0.35419-2.8432h0.00004-0.00003z" fill="#373737"/>
        <path id="rect3617" d="m392.51 111.62 7.2348 2.1429c-36.486 9.358-132.98 18.737-150.82 36.197-5.3732 5.3633-0.25818 29.66-1.9701 44.445l-8.4828 0.0474c1.1665-14.458-2.5295-35.951 1.2673-44.265 4.1391-8.4744 21.273-19.507 152.77-38.566z" fill="#72c482"/>
        <rect id="rect3612" transform="matrix(.99011 -.14027 .16669 .98601 0 0)" height="24.552" width="14.869" y="238.47" x="198.84" fill="url(#linearGradient3697)"/>
        <path id="rect3723" d="m410.86 108.25c26.793-8.8757 54.618-16.409 87.504-15.91 1.4702-0.3496 3.9585 2.3327-1.4142 2.4749-28.982 1.1551-56.121 9.0647-83.792 15.026-3.4938 1.1793-4.4217-0.94672-2.2981-1.591z" fill="#424345"/>
        <path id="rect3723-1" d="m411.34 114.34c31.718 6.855 63.663 15.591 95.866 34.947 1.6593 0.50815 2.5339 4.5122-2.8592 1.565-29.321-15.526-60.811-23.507-91.675-33.665-4.149-0.87283-3.8102-3.4471-1.3312-2.8469z" fill="#424345"/>
        <path id="rect3723-1-2" d="m392.89 109.32c-31.31-8.65-63.93-16.301-103.07-17.974-1.7266-0.36651-4.8558 1.581 1.5255 2.0298 34.398 2.7257 66.177 10.633 98.711 17.046 4.0809 1.1443 5.319-0.46486 2.834-1.1035z" fill="#424345"/>
        <path id="path3610" d="m254.56 408.9c0 6.4158-5.201 11.617-11.617 11.617-6.4158 0-11.617-5.201-11.617-11.617 0-6.4158 5.201-11.617 11.617-11.617 6.4158 0 11.617 5.201 11.617 11.617z" fill="url(#radialGradient3811)" transform="translate(.60609 -206.88)"/>
        <path id="path3605" d="m412.64 111.83c-6.5249 4.6901-22.497 4.5335-29.181 0 0-3.3064 6.5323-5.9868 14.59-5.9868 8.058 0 14.59 2.6804 14.59 5.9868z" fill="url(#linearGradient3679)"/>
        <path id="rect3723-8" d="m416.56 111.13c26.793-8.8757 54.618-16.409 87.504-15.91 1.4702-0.3496 3.9585 2.3327-1.4142 2.4749-28.982 1.1551-56.121 9.0647-83.792 15.026-3.4938 1.1793-4.4217-0.94672-2.2981-1.591z"/>
        <path id="rect3723-8-8" d="m406.81 116.69c32.062 7.0142 64.346 15.92 96.848 35.504 1.6767 0.51728 2.545 4.5461-2.8992 1.5623-29.601-15.722-61.428-23.868-92.613-34.199-4.1942-0.89353-3.8408-3.4802-1.3352-2.8672z"/>
        <path id="rect3723-8-8-1" d="m284.16 90.507c32.416 2.7294 65.258 6.9301 99.482 19.524 1.7117 0.26129 3.0092 3.3598-2.6911 1.4838-30.939-9.8046-63.246-13.446-95.159-18.866-4.2378-0.33812-4.1717-2.407-1.6314-2.1426z"/>
        <path id="rect3614-6" d="m242.89 231.02 5.6269 1c31.789 93.94 100.45 102.43 183.93 90.362 43.479-9.9451 40.117 21.776 2.3383 29.552-79.669 13.587-187.27 0.26162-191.9-120.91z" fill="url(#linearGradient3684)"/>
        <path id="path2875" d="m458.5 534.11c0 11.736-11.976 21.25-26.75 21.25s-26.75-9.514-26.75-21.25 11.976-21.25 26.75-21.25 26.75 9.514 26.75 21.25z" fill="url(#linearGradient3705)" transform="matrix(.96145 -.27726 .27412 .97247 -115.68 -74.726)"/>
        <path id="rect3815" opacity=".46718" d="m388 68.362 220 42c-153.82 45.421-298.47 37.65-439 6l219-47.998z" fill="url(#linearGradient3824)"/>
      </g>
    </g>
  </g>
  <metadata>
    <rdf:RDF>
      <cc:Work>
        <dc:format>image/svg+xml</dc:format>
        <dc:type rdf:resource="http://purl.org/dc/dcmitype/StillImage"/>
        <cc:license rdf:resource="http://creativecommons.org/licenses/publicdomain/"/>
        <dc:publisher>
          <cc:Agent rdf:about="http://openclipart.org/">
            <dc:title>Openclipart</dc:title>
          </cc:Agent>
        </dc:publisher>
        <dc:title>Student hat</dc:title>
        <dc:date>2010-05-14T14:45:49</dc:date>
        <dc:description>Kapelutek</dc:description>
        <dc:source>http://openclipart.org/detail/60301/student-hat-by-bocian</dc:source>
        <dc:creator>
          <cc:Agent>
            <dc:title>bocian</dc:title>
          </cc:Agent>
        </dc:creator>
        <dc:subject>
          <rdf:Bag>
            <rdf:li>cap</rdf:li>
            <rdf:li>clip art</rdf:li>
            <rdf:li>clipart</rdf:li>
            <rdf:li>hat</rdf:li>
            <rdf:li>school</rdf:li>
            <rdf:li>student</rdf:li>
            <rdf:li>university</rdf:li>
          </rdf:Bag>
        </dc:subject>
      </cc:Work>
      <cc:License rdf:about="http://creativecommons.org/licenses/publicdomain/">
        <cc:permits rdf:resource="http://creativecommons.org/ns#Reproduction"/>
        <cc:permits rdf:resource="http://creativecommons.org/ns#Distribution"/>
        <cc:permits rdf:resource="http://creativecommons.org/ns#DerivativeWorks"/>
      </cc:License>
    </rdf:RDF>
  </metadata>
</svg>
